# xmcd
#
# Track frame offsets:
#	150
#	11762
#	24195
#	37457
#	50222
#	63950
#	76080
#	88082
#	100830
#	112795
#	126475
#	138280
#	150487
#	163030
#	177380
#	190399
#	202375
#	214212
#	226440
#	237972
#	249900
#	263115
#	277552
#	288750
#	299397
#
# Disc length: 4129 seconds
# Revision: 0
# Processed by: cddbd v1.5.2PL0 Copyright (c) Steve Scherf et al.
# Submitted via: dBpowerAMP V12.0
#
DISCID=67101f19
DTITLE=Various Artist - The Tennessee Plowboy And His Guitar, Vol. 3
DYEAR=1987
DGENRE=Dance
TTITLE0=Eddy Arnold - You Know How Talk Gets Around  1949
TTITLE1=Eddy Arnold - Just A Little Lovin'  1948
TTITLE2=Eddy Arnold - Till The End Of The World  1998
TTITLE3=Eddy Arnold - Save A Little Corner In Your Heart  1998
TTITLE4=Eddy Arnold - M-O-T-H-E-R
TTITLE5=Eddy Arnold - I Wouldn't Trade The Silver In My Mother's Hair 1949
TTITLE6=Eddy Arnold - That Wonderful Mother Of Mine 1949
TTITLE7=Eddy Arnold - Bring Your Roses To Her Now 1949
TTITLE8=Eddy Arnold - I Wish I Had A Girl Like You Mother 1949
TTITLE9=Eddy Arnold - My Mother's Sweet Voice 1949
TTITLE10=Eddy Arnold - There's No Wings On My Angel 1949
TTITLE11=Eddy Arnold - Echo Of Your Footsteps, The 1949
TTITLE12=Eddy Arnold - Why Didn't You Take That Too 1998
TTITLE13=Eddy Arnold - That Little Boy Of Mine 1998
TTITLE14=Eddy Arnold - My Heart Cries For You 1998
TTITLE15=Eddy Arnold - This Is The Thanks I Get (For Loving You) 1954
TTITLE16=Don't Rob Another Man's Castle 1949
TTITLE17=Eddy Arnold - Me Too 1998
TTITLE18=Eddy Arnold - Little Angel With A Dirty Face 1950
TTITLE19=Eddy Arnold - I've Got Other Fish To Fry 1998
TTITLE20=Eddy Arnold - Many Tears Ago 1949
TTITLE21=Eddy Arnold - I Walk Alone 1949
TTITLE22=Eddy Arnold - Show Me The Way Back To Your Heart 1949
TTITLE23=Eddy Arnold - Homesick, Lonesome And Sorry 1998
TTITLE24=Eddy Arnold - One Kiss Too Many 1949
EXTD=
EXTT0=
EXTT1=
EXTT2=
EXTT3=
EXTT4=
EXTT5=
EXTT6=
EXTT7=
EXTT8=
EXTT9=
EXTT10=
EXTT11=
EXTT12=
EXTT13=
EXTT14=
EXTT15=
EXTT16=
EXTT17=
EXTT18=
EXTT19=
EXTT20=
EXTT21=
EXTT22=
EXTT23=
EXTT24=
PLAYORDER=
